<?xml version="1.0" standalone="no"?>
<!DOCTYPE svg PUBLIC "-//W3C//DTD SVG 20010904//EN"
 "http://www.w3.org/TR/2001/REC-SVG-20010904/DTD/svg10.dtd">
<svg version="1.0" xmlns="http://www.w3.org/2000/svg"
 width="200.000000pt" height="151.000000pt" viewBox="0 0 200.000000 151.000000"
 preserveAspectRatio="xMidYMid meet">

<g transform="translate(0.000000,151.000000) scale(0.100000,-0.100000)"
fill="#000000" stroke="none">
<path d="M467 1188 c-25 -42 -57 -99 -57 -104 0 -8 31 -4 50 8 15 10 22 10 32
0 33 -33 45 -3 32 81 -8 43 -35 51 -57 15z m23 -43 c0 -8 -4 -15 -10 -15 -5 0
-7 7 -4 15 4 8 8 15 10 15 2 0 4 -7 4 -15z"/>
<path d="M553 1194 c-3 -9 0 -20 7 -24 9 -6 11 -20 6 -49 -6 -36 -4 -41 14
-41 13 0 22 9 26 28 12 54 16 62 30 62 8 0 14 9 14 20 0 17 -7 20 -45 20 -33
0 -47 -5 -52 -16z"/>
<path d="M687 1188 c-25 -42 -57 -99 -57 -104 0 -8 31 -4 50 8 15 10 22 10 32
0 33 -33 45 -3 32 81 -8 43 -35 51 -57 15z m23 -43 c0 -8 -4 -15 -10 -15 -5 0
-7 7 -4 15 4 8 8 15 10 15 2 0 4 -7 4 -15z"/>
<path d="M795 1185 c-29 -28 -31 -51 -9 -83 12 -18 64 -33 64 -18 0 2 3 11 6
20 4 11 0 16 -14 16 -11 0 -22 6 -25 14 -7 17 11 36 35 36 11 0 18 7 18 20 0
29 -45 26 -75 -5z"/>
<path d="M905 1153 c-16 -31 -31 -60 -33 -65 -6 -13 33 -9 46 4 10 10 17 10
32 0 40 -25 48 -7 34 81 -5 29 -11 37 -28 37 -15 0 -29 -15 -51 -57z m45 -8
c0 -8 -4 -15 -10 -15 -5 0 -7 7 -4 15 4 8 8 15 10 15 2 0 4 -7 4 -15z"/>
<path d="M1027 1193 c-3 -10 -9 -39 -13 -65 l-6 -48 32 0 c33 0 70 15 82 34
12 18 9 63 -4 74 -7 6 -29 13 -50 17 -30 6 -37 4 -41 -12z m58 -48 c0 -10 -6
-20 -12 -22 -8 -3 -13 5 -13 22 0 17 5 25 13 23 6 -3 12 -13 12 -23z"/>
<path d="M1167 1203 c-3 -5 -8 -34 -12 -65 -7 -54 -6 -58 13 -58 15 0 21 9 26
43 4 23 9 52 13 65 4 17 1 22 -15 22 -12 0 -23 -3 -25 -7z"/>
<path d="M1248 1199 c-25 -14 -23 -56 2 -64 11 -3 20 -11 20 -16 0 -12 -7 -11
-30 1 -14 7 -20 6 -24 -7 -4 -9 -1 -20 6 -25 19 -12 62 -10 76 4 19 19 14 56
-8 63 -11 3 -20 11 -20 16 0 6 8 8 19 4 23 -7 37 21 15 29 -22 8 -36 7 -56 -5z"/>
<path d="M1333 1194 c-3 -9 -1 -19 6 -23 8 -5 10 -22 5 -49 -6 -38 -5 -42 14
-42 17 0 22 8 28 45 3 26 12 45 19 45 14 0 27 25 18 34 -14 14 -84 6 -90 -10z"/>
<path d="M1440 1150 c-16 -33 -30 -62 -30 -65 0 -9 30 -5 51 8 17 10 23 10 26
0 3 -7 14 -13 25 -13 19 0 20 4 13 58 -8 68 -10 72 -35 72 -14 0 -29 -18 -50
-60z m50 -5 c0 -8 -4 -15 -10 -15 -5 0 -7 7 -4 15 4 8 8 15 10 15 2 0 4 -7 4
-15z"/>
<path d="M1369 993 c-12 -15 -12 -16 4 -10 10 4 28 2 39 -4 16 -9 24 -7 37 6
15 16 15 17 -6 11 -12 -4 -24 -2 -28 4 -9 15 -31 12 -46 -7z"/>
<path d="M1710 955 c-132 -60 -182 -249 -94 -355 48 -57 114 -76 197 -59 41 9
62 21 98 58 52 51 69 96 69 181 0 67 -22 113 -73 154 -31 25 -48 31 -100 33
-41 2 -74 -2 -97 -12z m124 -147 c25 -35 20 -76 -13 -109 -33 -33 -56 -36 -89
-13 -30 21 -31 91 -2 122 28 30 83 30 104 0z"/>
<path d="M85 948 c-5 -16 -65 -382 -65 -397 0 -15 187 -14 245 0 56 14 95 55
102 107 5 36 2 45 -25 71 -27 28 -28 31 -11 36 11 4 26 20 35 37 31 60 -4 127
-77 148 -51 15 -199 13 -204 -2z m163 -110 c2 -11 -6 -22 -22 -30 -32 -14 -39
-8 -30 26 5 20 12 26 28 24 11 -2 22 -11 24 -20z m-19 -142 c16 -19 3 -45 -25
-52 -32 -8 -41 0 -36 36 3 23 9 30 27 30 12 0 28 -6 34 -14z"/>
<path d="M457 758 c-54 -112 -97 -206 -97 -210 0 -5 31 -8 69 -8 67 0 69 1 81
30 12 29 16 31 59 28 42 -3 46 -5 49 -30 3 -27 5 -28 68 -28 35 0 64 4 64 8 0
12 -39 332 -46 375 l-6 37 -72 0 -73 0 -96 -202z m153 -3 c0 -52 -1 -55 -25
-55 -26 0 -26 -2 10 98 9 26 15 10 15 -43z"/>
<path d="M810 763 c-18 -109 -33 -202 -34 -208 0 -6 29 -11 65 -13 l66 -3 13
78 13 78 19 -65 c11 -36 21 -71 23 -77 6 -19 135 -18 135 1 0 7 -11 43 -25 80
l-25 66 30 15 c38 20 62 66 62 120 0 93 -52 124 -208 125 l-101 0 -33 -197z
m198 85 c26 -26 11 -58 -35 -72 -19 -6 -23 -4 -23 16 0 60 27 87 58 56z"/>
<path d="M1301 897 c-16 -34 -59 -124 -95 -200 -36 -76 -66 -143 -66 -148 0
-5 31 -9 69 -9 68 0 69 1 80 30 9 27 14 30 56 30 43 0 46 -2 52 -30 5 -29 7
-30 64 -30 32 0 60 4 63 8 4 7 -17 208 -39 368 l-6 40 -75 2 -75 1 -28 -62z
m89 -142 c0 -52 -1 -55 -25 -55 -29 0 -29 -2 -11 41 7 19 16 42 19 52 11 31
17 18 17 -38z"/>
<path d="M502 371 c-17 -32 -32 -61 -32 -65 0 -11 36 -6 48 6 10 10 17 10 32
0 31 -19 40 -14 40 22 0 65 -11 96 -34 96 -16 0 -30 -15 -54 -59z m48 -6 c0
-8 -4 -15 -10 -15 -5 0 -7 7 -4 15 4 8 8 15 10 15 2 0 4 -7 4 -15z"/>
<path d="M613 414 c-3 -9 0 -20 7 -24 9 -6 11 -20 6 -49 -5 -36 -4 -41 13 -41
20 0 31 18 31 51 0 11 9 27 20 36 33 29 25 43 -25 43 -33 0 -47 -5 -52 -16z"/>
<path d="M722 371 c-17 -32 -32 -61 -32 -65 0 -11 36 -6 48 6 10 10 17 10 32
0 31 -19 40 -14 40 22 0 65 -11 96 -34 96 -16 0 -30 -15 -54 -59z m48 -6 c0
-8 -4 -15 -10 -15 -5 0 -7 7 -4 15 4 8 8 15 10 15 2 0 4 -7 4 -15z"/>
<path d="M851 404 c-26 -33 -27 -58 -1 -84 17 -17 60 -28 60 -16 0 2 3 11 6
20 4 11 0 16 -14 16 -11 0 -22 6 -24 13 -9 22 3 37 28 37 17 0 24 6 24 20 0
31 -53 27 -79 -6z"/>
<path d="M961 371 c-17 -32 -31 -62 -31 -65 0 -11 36 -6 48 6 10 10 17 10 32
0 40 -25 48 -7 34 81 -5 30 -11 37 -29 37 -17 0 -30 -14 -54 -59z m49 -6 c0
-8 -4 -15 -10 -15 -5 0 -7 7 -4 15 4 8 8 15 10 15 2 0 4 -7 4 -15z"/>
<path d="M1086 415 c-3 -8 -8 -37 -12 -65 -6 -43 -4 -50 10 -50 9 0 20 10 25
22 l8 22 12 -22 c16 -31 45 -30 37 2 -4 15 0 28 9 36 21 17 19 47 -4 60 -29
15 -78 12 -85 -5z m56 -30 c0 -5 -5 -11 -11 -13 -6 -2 -11 4 -11 13 0 9 5 15
11 13 6 -2 11 -8 11 -13z"/>
<path d="M1211 380 c-17 -80 -17 -82 31 -78 47 3 61 23 26 37 l-23 10 23 0
c28 1 30 31 1 31 -11 0 -17 5 -14 10 3 6 15 10 26 10 10 0 19 7 19 15 0 11
-11 15 -39 15 -39 0 -39 0 -50 -50z"/>
<path d="M1346 414 c-3 -9 -6 -24 -6 -33 0 -10 -9 -28 -20 -41 -22 -26 -14
-44 16 -38 22 4 39 36 48 91 6 32 4 37 -12 37 -11 0 -23 -7 -26 -16z"/>
<path d="M1422 407 c-42 -45 -16 -107 45 -107 52 0 84 78 47 114 -23 23 -67
20 -92 -7z m68 -37 c0 -24 -26 -38 -42 -22 -16 16 -2 42 22 42 13 0 20 -7 20
-20z"/>
</g>
</svg>
